<?xml version="1.0" standalone="no"?>
<!DOCTYPE svg PUBLIC "-//W3C//DTD SVG 20010904//EN"
 "http://www.w3.org/TR/2001/REC-SVG-20010904/DTD/svg10.dtd">
<svg version="1.0" xmlns="http://www.w3.org/2000/svg"
 width="960.000000pt" height="540.000000pt" viewBox="0 0 960.000000 540.000000"
 preserveAspectRatio="xMidYMid meet">
<metadata>
Created by potrace 1.16, written by Peter Selinger 2001-2019
</metadata>
<g transform="translate(0.000000,540.000000) scale(0.100000,-0.100000)"
fill="#000000" stroke="none">
<path d="M4780 5309 c-357 -34 -728 -150 -1020 -319 -696 -402 -1148 -1068
-1264 -1861 -22 -146 -22 -546 0 -701 65 -473 261 -918 562 -1278 408 -487
963 -799 1586 -891 170 -25 550 -27 718 -3 933 128 1712 754 2043 1638 47 128
108 368 131 521 26 169 26 551 0 720 -127 835 -631 1536 -1372 1911 -425 214
-916 308 -1384 263z m1027 -1199 c181 -10 302 -30 530 -86 403 -98 798 -372
898 -623 33 -82 42 -179 22 -243 -71 -227 -394 -445 -917 -618 l-175 -58 -6
-119 c-6 -134 -22 -189 -79 -273 -59 -86 -188 -180 -249 -180 -11 0 -28 -12
-38 -26 -10 -14 -34 -41 -52 -60 -26 -26 -41 -55 -58 -115 -26 -89 -60 -146
-122 -202 -116 -105 -308 -135 -475 -74 l-69 26 -39 -20 c-22 -11 -74 -29
-118 -40 -72 -17 -83 -24 -137 -77 -82 -82 -153 -120 -271 -144 -108 -22 -176
-19 -277 13 -109 35 -177 95 -260 231 l-20 33 -105 6 c-121 6 -162 21 -216 81
-40 45 -59 85 -75 157 -8 41 -17 54 -45 70 -41 25 -74 75 -74 116 0 37 -5 44
-55 76 -48 31 -115 115 -147 184 -20 44 -23 66 -23 180 0 124 1 133 30 190 19
38 56 86 103 133 72 71 73 73 63 104 -34 97 13 184 115 209 l42 11 6 66 c16
161 76 274 179 340 149 96 318 103 482 22 l86 -43 37 20 c53 30 93 36 146 22
l46 -11 47 53 c62 68 119 104 216 134 167 53 393 13 517 -90 23 -19 43 -35 45
-35 2 0 36 17 76 38 70 36 74 37 183 37 97 0 117 -3 156 -24 102 -53 190 -156
190 -224 0 -18 13 -44 36 -70 44 -53 92 -148 102 -207 8 -44 9 -45 45 -44 42
1 100 18 272 76 268 91 438 195 481 295 44 102 -29 230 -203 355 -353 254
-904 362 -1623 318 -467 -28 -1035 -126 -1330 -228 -49 -17 -430 -167 -455
-179 -5 -3 1 5 15 16 87 72 517 253 737 310 195 50 525 113 823 155 273 39
679 54 987 36z"/>
</g>
</svg>
